# MagicaVoxel @ Ephtracy

# group
o 

# material
mtllib 타일.mtl
usemtl palette

# normals
vn -1 0 0
vn 1 0 0
vn 0 0 1
vn 0 0 -1
vn 0 -1 0
vn 0 1 0

# texcoords
vt 0.396484 0.5
vt 0.900391 0.5

# verts
v -0.5 0 0.5
v -0.5 0 -0.5
v -0.5 0.7 0.3
v -0.5 0.7 0.2
v -0.5 0.7 -0.4
v -0.5 0.7 -0.5
v -0.5 0.8 0.5
v -0.5 0.8 0.3
v -0.5 0.8 0.2
v -0.5 0.8 0.1
v -0.5 0.8 -0.2
v -0.5 0.8 -0.4
v -0.5 0.9 0.3
v -0.5 0.9 0.2
v -0.5 0.9 0.1
v -0.5 0.9 -0.2
v -0.5 1 0.5
v -0.5 1 -0.5
v 0 0.6 0.4
v 0 0.6 0.2
v 0 0.7 0.4
v 0 0.9 0.4
v 0 0.9 0.2
v 0.4 0.5 0.4
v 0.4 0.5 0.3
v 0.4 0.5 -0.3
v 0.4 0.6 0.4
v 0.4 0.6 0.3
v 0.4 0.6 0.1
v 0.4 0.6 0
v 0.4 0.7 0.2
v 0.4 0.7 0.1
v 0.4 0.7 -0.2
v 0.4 0.7 -0.3
v 0.4 0.8 0.4
v 0.4 0.8 0.2
v 0.4 0.8 -0.2
v 0.4 0.8 -0.3
v 0.4 0.9 0.4
v 0.4 0.9 0
v 0.4 0.9 -0.3
v -0.4 0.5 0.4
v -0.4 0.5 0.2
v -0.4 0.5 0.1
v -0.4 0.5 -0.3
v -0.4 0.6 0.4
v -0.4 0.6 0.2
v -0.4 0.8 -0.2
v -0.4 0.8 -0.3
v -0.4 0.9 0.1
v -0.4 0.9 -0.2
v -0.4 0.9 -0.3
v -0.3 0.5 0.2
v -0.3 0.5 0.1
v -0.3 0.6 0.4
v -0.3 0.6 0.2
v -0.3 0.8 0.4
v -0.3 0.8 0.2
v -0.3 0.9 0.2
v -0.3 0.9 0.1
v -0.2 0.8 0.4
v -0.2 0.8 0.2
v -0.2 0.9 0.4
v -0.2 0.9 0.2
v 0.2 0.6 0.4
v 0.2 0.6 0.2
v 0.2 0.9 0.4
v 0.2 0.9 0.2
v 0.5 0 0.5
v 0.5 0 -0.5
v 0.5 0.5 0.4
v 0.5 0.5 0.3
v 0.5 0.6 0.4
v 0.5 0.6 0.3
v 0.5 0.6 0.1
v 0.5 0.6 0
v 0.5 0.7 0.2
v 0.5 0.7 0.1
v 0.5 0.7 -0.2
v 0.5 0.7 -0.3
v 0.5 0.8 0.5
v 0.5 0.8 0.2
v 0.5 0.8 -0.2
v 0.5 0.8 -0.3
v 0.5 0.8 -0.4
v 0.5 0.9 0
v 0.5 0.9 -0.3
v 0.5 0.9 -0.4
v 0.5 0.9 -0.5
v 0.5 1 0.5
v 0.5 1 -0.5
v -0.5 0 0.5
v -0.5 0.8 0.5
v -0.5 1 0.5
v -0.4 0.6 0.5
v -0.4 0.8 0.5
v -0.3 0.6 0.5
v -0.3 0.8 0.5
v -0.2 0.8 0.5
v -0.2 0.9 0.5
v -0.1 0.6 0.5
v -0.1 0.7 0.5
v 0 0.6 0.5
v 0 0.7 0.5
v 0 0.9 0.5
v 0.1 0.7 0.5
v 0.1 0.8 0.5
v 0.2 0.8 0.5
v 0.2 0.9 0.5
v 0.4 0.8 0.5
v 0.4 0.9 0.5
v 0.5 0 0.5
v 0.5 0.8 0.5
v 0.5 1 0.5
v -0.4 0.5 0.2
v -0.4 0.6 0.2
v -0.3 0.5 0.2
v -0.3 0.6 0.2
v -0.4 0.5 -0.3
v -0.4 0.8 -0.3
v -0.4 0.9 -0.3
v 0.4 0.5 -0.3
v 0.4 0.7 -0.3
v 0.4 0.8 -0.3
v 0.4 0.9 -0.3
v -0.4 0.5 0.4
v -0.4 0.6 0.4
v -0.3 0.6 0.4
v -0.3 0.8 0.4
v -0.2 0.8 0.4
v -0.2 0.9 0.4
v -0.1 0.6 0.4
v -0.1 0.7 0.4
v 0 0.6 0.4
v 0 0.7 0.4
v 0 0.9 0.4
v 0.2 0.6 0.4
v 0.2 0.9 0.4
v 0.4 0.5 0.4
v 0.4 0.6 0.4
v 0.4 0.8 0.4
v 0.4 0.9 0.4
v -0.3 0.8 0.2
v -0.3 0.9 0.2
v -0.2 0.8 0.2
v -0.2 0.9 0.2
v 0 0.6 0.2
v 0 0.9 0.2
v 0.2 0.6 0.2
v 0.2 0.9 0.2
v -0.4 0.5 0.1
v -0.4 0.9 0.1
v -0.3 0.5 0.1
v -0.3 0.9 0.1
v -0.5 0 -0.5
v -0.5 0.7 -0.5
v -0.5 1 -0.5
v -0.4 0.7 -0.5
v -0.4 0.9 -0.5
v -0.2 0.8 -0.5
v -0.2 0.9 -0.5
v -0.1 0.7 -0.5
v -0.1 0.8 -0.5
v 0 0.7 -0.5
v 0 0.9 -0.5
v 0.1 0.6 -0.5
v 0.1 0.7 -0.5
v 0.2 0.6 -0.5
v 0.2 0.7 -0.5
v 0.3 0.8 -0.5
v 0.3 0.9 -0.5
v 0.4 0.8 -0.5
v 0.4 0.9 -0.5
v 0.5 0 -0.5
v 0.5 0.9 -0.5
v 0.5 1 -0.5
v -0.5 0 0.5
v 0.5 0 0.5
v -0.5 0 -0.5
v 0.5 0 -0.5
v -0.4 0.6 0.4
v -0.3 0.6 0.4
v 0 0.6 0.4
v 0.2 0.6 0.4
v -0.4 0.6 0.2
v -0.3 0.6 0.2
v 0 0.6 0.2
v 0.2 0.6 0.2
v -0.3 0.8 0.4
v -0.2 0.8 0.4
v -0.3 0.8 0.2
v -0.2 0.8 0.2
v -0.2 0.9 0.4
v 0 0.9 0.4
v 0.2 0.9 0.4
v 0.4 0.9 0.4
v -0.3 0.9 0.2
v -0.2 0.9 0.2
v 0 0.9 0.2
v 0.2 0.9 0.2
v -0.4 0.9 0.1
v -0.3 0.9 0.1
v 0.4 0.9 0
v -0.4 0.9 -0.2
v -0.4 0.9 -0.3
v 0.4 0.9 -0.3
v -0.4 0.5 0.4
v 0.4 0.5 0.4
v 0.4 0.5 0.3
v -0.4 0.5 0.2
v -0.3 0.5 0.2
v -0.4 0.5 0.1
v -0.3 0.5 0.1
v -0.4 0.5 -0.3
v 0.4 0.5 -0.3
v -0.5 1 0.5
v 0.5 1 0.5
v -0.5 1 -0.5
v 0.5 1 -0.5

# faces
f 3/1/1 2/1/1 1/1/1
f 4/1/1 2/1/1 3/1/1
f 5/1/1 2/1/1 4/1/1
f 6/1/1 2/1/1 5/1/1
f 7/1/1 3/1/1 1/1/1
f 8/2/1 4/2/1 3/2/1
f 8/1/1 3/1/1 7/1/1
f 9/1/1 5/1/1 4/1/1
f 9/2/1 4/2/1 8/2/1
f 10/1/1 5/1/1 9/1/1
f 11/1/1 5/1/1 10/1/1
f 12/2/1 6/2/1 5/2/1
f 12/1/1 5/1/1 11/1/1
f 13/2/1 8/2/1 7/2/1
f 13/1/1 9/1/1 8/1/1
f 14/2/1 10/2/1 9/2/1
f 14/1/1 9/1/1 13/1/1
f 15/1/1 11/1/1 10/1/1
f 15/2/1 10/2/1 14/2/1
f 16/2/1 12/2/1 11/2/1
f 16/1/1 11/1/1 15/1/1
f 17/2/1 14/2/1 13/2/1
f 17/2/1 15/2/1 14/2/1
f 17/2/1 16/2/1 15/2/1
f 17/2/1 13/2/1 7/2/1
f 18/2/1 6/2/1 12/2/1
f 18/2/1 16/2/1 17/2/1
f 18/2/1 12/2/1 16/2/1
f 21/2/1 20/2/1 19/2/1
f 22/2/1 20/2/1 21/2/1
f 23/2/1 20/2/1 22/2/1
f 27/2/1 25/2/1 24/2/1
f 28/1/1 26/1/1 25/1/1
f 28/2/1 25/2/1 27/2/1
f 29/1/1 26/1/1 28/1/1
f 30/1/1 26/1/1 29/1/1
f 31/1/1 28/1/1 27/1/1
f 31/1/1 29/1/1 28/1/1
f 32/2/1 30/2/1 29/2/1
f 32/1/1 29/1/1 31/1/1
f 33/1/1 26/1/1 30/1/1
f 34/1/1 26/1/1 33/1/1
f 35/1/1 31/1/1 27/1/1
f 36/2/1 32/2/1 31/2/1
f 36/1/1 31/1/1 35/1/1
f 37/1/1 33/1/1 30/1/1
f 37/2/1 34/2/1 33/2/1
f 38/2/1 34/2/1 37/2/1
f 39/2/1 36/2/1 35/2/1
f 40/2/1 30/2/1 32/2/1
f 40/2/1 36/2/1 39/2/1
f 40/2/1 32/2/1 36/2/1
f 40/1/1 38/1/1 37/1/1
f 40/1/1 37/1/1 30/1/1
f 41/1/1 38/1/1 40/1/1
f 42/1/2 43/1/2 46/1/2
f 46/1/2 43/1/2 47/1/2
f 44/1/2 45/1/2 48/1/2
f 48/1/2 45/1/2 49/1/2
f 44/1/2 48/1/2 50/1/2
f 48/2/2 49/2/2 51/2/2
f 50/1/2 48/1/2 51/1/2
f 51/2/2 49/2/2 52/2/2
f 53/2/2 54/2/2 56/2/2
f 55/2/2 56/2/2 57/2/2
f 56/2/2 54/2/2 58/2/2
f 57/2/2 56/2/2 58/2/2
f 58/2/2 54/2/2 59/2/2
f 59/2/2 54/2/2 60/2/2
f 61/2/2 62/2/2 63/2/2
f 63/2/2 62/2/2 64/2/2
f 65/2/2 66/2/2 67/2/2
f 67/2/2 66/2/2 68/2/2
f 69/1/2 70/1/2 71/1/2
f 71/1/2 70/1/2 72/1/2
f 69/1/2 71/1/2 73/1/2
f 71/2/2 72/2/2 73/2/2
f 72/1/2 70/1/2 74/1/2
f 73/2/2 72/2/2 74/2/2
f 74/1/2 70/1/2 75/1/2
f 75/1/2 70/1/2 76/1/2
f 73/1/2 74/1/2 77/1/2
f 74/1/2 75/1/2 77/1/2
f 75/2/2 76/2/2 78/2/2
f 77/1/2 75/1/2 78/1/2
f 76/1/2 70/1/2 79/1/2
f 79/1/2 70/1/2 80/1/2
f 69/1/2 73/1/2 81/1/2
f 73/1/2 77/1/2 81/1/2
f 77/2/2 78/2/2 82/2/2
f 81/1/2 77/1/2 82/1/2
f 79/2/2 80/2/2 83/2/2
f 76/1/2 79/1/2 83/1/2
f 80/1/2 70/1/2 84/1/2
f 83/2/2 80/2/2 84/2/2
f 84/1/2 70/1/2 85/1/2
f 76/1/2 83/1/2 86/1/2
f 78/2/2 76/2/2 86/2/2
f 82/2/2 78/2/2 86/2/2
f 83/1/2 84/1/2 86/1/2
f 81/2/2 82/2/2 86/2/2
f 84/2/2 85/2/2 87/2/2
f 86/1/2 84/1/2 87/1/2
f 85/1/2 70/1/2 88/1/2
f 87/2/2 85/2/2 88/2/2
f 88/1/2 70/1/2 89/1/2
f 86/2/2 87/2/2 90/2/2
f 81/2/2 86/2/2 90/2/2
f 88/2/2 89/2/2 90/2/2
f 87/2/2 88/2/2 90/2/2
f 90/2/2 89/2/2 91/2/2
f 95/1/3 93/1/3 92/1/3
f 96/2/3 94/2/3 93/2/3
f 96/1/3 93/1/3 95/1/3
f 97/1/3 95/1/3 92/1/3
f 97/2/3 96/2/3 95/2/3
f 98/2/3 94/2/3 96/2/3
f 98/2/3 96/2/3 97/2/3
f 99/1/3 98/1/3 97/1/3
f 99/2/3 94/2/3 98/2/3
f 100/2/3 94/2/3 99/2/3
f 101/1/3 97/1/3 92/1/3
f 101/1/3 99/1/3 97/1/3
f 101/1/3 100/1/3 99/1/3
f 102/1/3 100/1/3 101/1/3
f 103/1/3 101/1/3 92/1/3
f 103/2/3 102/2/3 101/2/3
f 104/1/3 100/1/3 102/1/3
f 104/2/3 102/2/3 103/2/3
f 105/2/3 94/2/3 100/2/3
f 105/1/3 100/1/3 104/1/3
f 106/1/3 104/1/3 103/1/3
f 106/2/3 105/2/3 104/2/3
f 107/2/3 105/2/3 106/2/3
f 108/1/3 107/1/3 106/1/3
f 108/2/3 105/2/3 107/2/3
f 109/2/3 94/2/3 105/2/3
f 109/2/3 105/2/3 108/2/3
f 110/1/3 108/1/3 106/1/3
f 110/1/3 109/1/3 108/1/3
f 111/2/3 94/2/3 109/2/3
f 111/1/3 109/1/3 110/1/3
f 112/1/3 110/1/3 106/1/3
f 112/1/3 103/1/3 92/1/3
f 112/1/3 106/1/3 103/1/3
f 113/2/3 111/2/3 110/2/3
f 113/1/3 110/1/3 112/1/3
f 114/2/3 94/2/3 111/2/3
f 114/2/3 111/2/3 113/2/3
f 117/2/3 116/2/3 115/2/3
f 118/2/3 116/2/3 117/2/3
f 122/1/3 120/1/3 119/1/3
f 122/1/3 121/1/3 120/1/3
f 123/1/3 121/1/3 122/1/3
f 124/1/3 121/1/3 123/1/3
f 125/1/3 121/1/3 124/1/3
f 126/1/4 127/1/4 128/1/4
f 128/1/4 129/1/4 130/1/4
f 126/1/4 128/1/4 132/1/4
f 130/1/4 131/1/4 132/1/4
f 128/1/4 130/1/4 132/1/4
f 132/1/4 131/1/4 133/1/4
f 126/1/4 132/1/4 134/1/4
f 132/2/4 133/2/4 134/2/4
f 133/1/4 131/1/4 135/1/4
f 134/2/4 133/2/4 135/2/4
f 135/1/4 131/1/4 136/1/4
f 126/1/4 134/1/4 137/1/4
f 126/1/4 137/1/4 139/1/4
f 137/1/4 138/1/4 139/1/4
f 139/1/4 138/1/4 140/1/4
f 140/1/4 138/1/4 141/1/4
f 141/1/4 138/1/4 142/1/4
f 143/2/4 144/2/4 145/2/4
f 145/2/4 144/2/4 146/2/4
f 147/2/4 148/2/4 149/2/4
f 149/2/4 148/2/4 150/2/4
f 151/2/4 152/2/4 153/2/4
f 153/2/4 152/2/4 154/2/4
f 155/1/4 156/1/4 158/1/4
f 156/2/4 157/2/4 158/2/4
f 158/2/4 157/2/4 159/2/4
f 158/1/4 159/1/4 160/1/4
f 159/2/4 157/2/4 161/2/4
f 160/1/4 159/1/4 161/1/4
f 155/1/4 158/1/4 162/1/4
f 158/1/4 160/1/4 162/1/4
f 160/2/4 161/2/4 163/2/4
f 162/1/4 160/1/4 163/1/4
f 155/1/4 162/1/4 164/1/4
f 162/2/4 163/2/4 164/2/4
f 161/2/4 157/2/4 165/2/4
f 164/2/4 163/2/4 165/2/4
f 163/2/4 161/2/4 165/2/4
f 155/1/4 164/1/4 166/1/4
f 164/1/4 165/1/4 166/1/4
f 166/1/4 165/1/4 167/1/4
f 155/1/4 166/1/4 168/1/4
f 166/2/4 167/2/4 168/2/4
f 167/1/4 165/1/4 169/1/4
f 168/2/4 167/2/4 169/2/4
f 168/1/4 169/1/4 170/1/4
f 169/1/4 165/1/4 170/1/4
f 165/2/4 157/2/4 171/2/4
f 170/1/4 165/1/4 171/1/4
f 168/1/4 170/1/4 172/1/4
f 170/2/4 171/2/4 172/2/4
f 171/2/4 157/2/4 173/2/4
f 172/2/4 171/2/4 173/2/4
f 168/1/4 172/1/4 174/1/4
f 155/1/4 168/1/4 174/1/4
f 172/1/4 173/1/4 174/1/4
f 173/2/4 157/2/4 175/2/4
f 174/1/4 173/1/4 175/1/4
f 175/2/4 157/2/4 176/2/4
f 179/1/5 178/1/5 177/1/5
f 180/1/5 178/1/5 179/1/5
f 185/2/5 182/2/5 181/2/5
f 186/2/5 182/2/5 185/2/5
f 187/2/5 184/2/5 183/2/5
f 188/2/5 184/2/5 187/2/5
f 191/2/5 190/2/5 189/2/5
f 192/2/5 190/2/5 191/2/5
f 198/2/5 194/2/5 193/2/5
f 199/2/5 194/2/5 198/2/5
f 200/2/5 196/2/5 195/2/5
f 202/2/5 199/2/5 198/2/5
f 202/2/5 200/2/5 199/2/5
f 202/2/5 198/2/5 197/2/5
f 203/2/5 196/2/5 200/2/5
f 203/2/5 202/2/5 201/2/5
f 203/2/5 200/2/5 202/2/5
f 204/2/5 203/2/5 201/2/5
f 205/2/5 203/2/5 204/2/5
f 206/2/5 203/2/5 205/2/5
f 207/1/6 208/1/6 209/1/6
f 207/1/6 209/1/6 210/1/6
f 210/1/6 209/1/6 211/1/6
f 211/1/6 209/1/6 213/1/6
f 212/1/6 213/1/6 214/1/6
f 213/1/6 209/1/6 215/1/6
f 214/1/6 213/1/6 215/1/6
f 216/2/6 217/2/6 218/2/6
f 218/2/6 217/2/6 219/2/6
