# MagicaVoxel @ Ephtracy

# group
o 

# material
mtllib 미사일.mtl
usemtl palette

# normals
vn -1 0 0
vn 1 0 0
vn 0 0 1
vn 0 0 -1
vn 0 -1 0
vn 0 1 0

# texcoords
vt 0.0175781 0.5
vt 0.841797 0.5
vt 0.986328 0.5

# verts
v -0.5 0.2 0.1
v -0.5 0.2 -0.1
v -0.5 0.3 0.2
v -0.5 0.3 0.1
v -0.5 0.3 -0.1
v -0.5 0.3 -0.2
v -0.5 0.6 0.2
v -0.5 0.6 0.1
v -0.5 0.6 -0.1
v -0.5 0.6 -0.2
v -0.5 0.7 0.1
v -0.5 0.7 -0.1
v -0.2 0.3 0.2
v -0.2 0.3 -0.2
v -0.2 0.4 0.1
v -0.2 0.4 -0.1
v -0.2 0.5 0.1
v -0.2 0.5 -0.1
v -0.2 0.6 0.2
v -0.2 0.6 -0.2
v -0.4 0.2 0.1
v -0.4 0.2 -0.1
v -0.4 0.3 0.2
v -0.4 0.3 0.1
v -0.4 0.3 -0.1
v -0.4 0.3 -0.2
v -0.4 0.4 0.1
v -0.4 0.4 -0.1
v -0.4 0.5 0.1
v -0.4 0.5 -0.1
v -0.4 0.6 0.2
v -0.4 0.6 0.1
v -0.4 0.6 -0.1
v -0.4 0.6 -0.2
v -0.4 0.7 0.1
v -0.4 0.7 -0.1
v 0.4 0.3 0.2
v 0.4 0.3 -0.2
v 0.4 0.6 0.2
v 0.4 0.6 -0.2
v -0.5 0.3 0.2
v -0.5 0.6 0.2
v -0.4 0.3 0.2
v -0.4 0.6 0.2
v -0.2 0.3 0.2
v -0.2 0.6 0.2
v 0.2 0.3 0.2
v 0.2 0.6 0.2
v 0.4 0.3 0.2
v 0.4 0.6 0.2
v -0.5 0.2 0.1
v -0.5 0.3 0.1
v -0.5 0.6 0.1
v -0.5 0.7 0.1
v -0.4 0.2 0.1
v -0.4 0.3 0.1
v -0.4 0.4 0.1
v -0.4 0.5 0.1
v -0.4 0.6 0.1
v -0.4 0.7 0.1
v -0.3 0.4 0.1
v -0.3 0.5 0.1
v -0.2 0.4 0.1
v -0.2 0.5 0.1
v -0.5 0.2 -0.1
v -0.5 0.3 -0.1
v -0.5 0.6 -0.1
v -0.5 0.7 -0.1
v -0.4 0.2 -0.1
v -0.4 0.3 -0.1
v -0.4 0.4 -0.1
v -0.4 0.5 -0.1
v -0.4 0.6 -0.1
v -0.4 0.7 -0.1
v -0.3 0.4 -0.1
v -0.3 0.5 -0.1
v -0.2 0.4 -0.1
v -0.2 0.5 -0.1
v -0.5 0.3 -0.2
v -0.5 0.6 -0.2
v -0.4 0.3 -0.2
v -0.4 0.6 -0.2
v -0.2 0.3 -0.2
v -0.2 0.6 -0.2
v 0.2 0.3 -0.2
v 0.2 0.6 -0.2
v 0.4 0.3 -0.2
v 0.4 0.6 -0.2
v -0.5 0.2 0.1
v -0.4 0.2 0.1
v -0.5 0.2 -0.1
v -0.4 0.2 -0.1
v -0.5 0.3 0.2
v -0.4 0.3 0.2
v -0.2 0.3 0.2
v 0.2 0.3 0.2
v 0.4 0.3 0.2
v -0.5 0.3 0.1
v -0.4 0.3 0.1
v -0.5 0.3 -0.1
v -0.4 0.3 -0.1
v -0.5 0.3 -0.2
v -0.4 0.3 -0.2
v -0.2 0.3 -0.2
v 0.2 0.3 -0.2
v 0.4 0.3 -0.2
v -0.4 0.4 0.1
v -0.3 0.4 0.1
v -0.2 0.4 0.1
v -0.4 0.4 -0.1
v -0.3 0.4 -0.1
v -0.2 0.4 -0.1
v -0.4 0.5 0.1
v -0.3 0.5 0.1
v -0.2 0.5 0.1
v -0.4 0.5 -0.1
v -0.3 0.5 -0.1
v -0.2 0.5 -0.1
v -0.5 0.6 0.2
v -0.4 0.6 0.2
v -0.2 0.6 0.2
v 0.2 0.6 0.2
v 0.4 0.6 0.2
v -0.5 0.6 0.1
v -0.4 0.6 0.1
v -0.5 0.6 -0.1
v -0.4 0.6 -0.1
v -0.5 0.6 -0.2
v -0.4 0.6 -0.2
v -0.2 0.6 -0.2
v 0.2 0.6 -0.2
v 0.4 0.6 -0.2
v -0.5 0.7 0.1
v -0.4 0.7 0.1
v -0.5 0.7 -0.1
v -0.4 0.7 -0.1

# faces
f 4/3/1 2/3/1 1/3/1
f 5/3/1 2/3/1 4/3/1
f 7/3/1 4/3/1 3/3/1
f 7/3/1 6/3/1 5/3/1
f 7/3/1 5/3/1 4/3/1
f 8/3/1 6/3/1 7/3/1
f 9/3/1 6/3/1 8/3/1
f 10/3/1 6/3/1 9/3/1
f 11/3/1 9/3/1 8/3/1
f 12/3/1 9/3/1 11/3/1
f 15/3/1 14/3/1 13/3/1
f 16/3/1 14/3/1 15/3/1
f 17/3/1 15/3/1 13/3/1
f 18/3/1 14/3/1 16/3/1
f 19/3/1 17/3/1 13/3/1
f 19/3/1 18/3/1 17/3/1
f 20/3/1 14/3/1 18/3/1
f 20/3/1 18/3/1 19/3/1
f 21/3/2 22/3/2 24/3/2
f 24/3/2 22/3/2 25/3/2
f 23/3/2 24/3/2 27/3/2
f 25/3/2 26/3/2 27/3/2
f 24/3/2 25/3/2 27/3/2
f 27/3/2 26/3/2 28/3/2
f 23/3/2 27/3/2 29/3/2
f 28/3/2 26/3/2 30/3/2
f 23/3/2 29/3/2 31/3/2
f 29/3/2 30/3/2 31/3/2
f 31/3/2 30/3/2 32/3/2
f 30/3/2 26/3/2 33/3/2
f 32/3/2 30/3/2 33/3/2
f 33/3/2 26/3/2 34/3/2
f 32/3/2 33/3/2 35/3/2
f 35/3/2 33/3/2 36/3/2
f 37/2/2 38/2/2 39/2/2
f 39/2/2 38/2/2 40/2/2
f 43/3/3 42/3/3 41/3/3
f 44/3/3 42/3/3 43/3/3
f 47/3/3 46/3/3 45/3/3
f 48/3/3 46/3/3 47/3/3
f 49/2/3 48/2/3 47/2/3
f 50/2/3 48/2/3 49/2/3
f 55/3/3 52/3/3 51/3/3
f 56/3/3 52/3/3 55/3/3
f 59/3/3 54/3/3 53/3/3
f 60/3/3 54/3/3 59/3/3
f 61/3/3 58/3/3 57/3/3
f 62/3/3 58/3/3 61/3/3
f 63/1/3 62/1/3 61/1/3
f 64/1/3 62/1/3 63/1/3
f 65/3/4 66/3/4 69/3/4
f 69/3/4 66/3/4 70/3/4
f 67/3/4 68/3/4 73/3/4
f 73/3/4 68/3/4 74/3/4
f 71/3/4 72/3/4 75/3/4
f 75/3/4 72/3/4 76/3/4
f 75/1/4 76/1/4 77/1/4
f 77/1/4 76/1/4 78/1/4
f 79/3/4 80/3/4 81/3/4
f 81/3/4 80/3/4 82/3/4
f 83/3/4 84/3/4 85/3/4
f 85/3/4 84/3/4 86/3/4
f 85/2/4 86/2/4 87/2/4
f 87/2/4 86/2/4 88/2/4
f 91/3/5 90/3/5 89/3/5
f 92/3/5 90/3/5 91/3/5
f 98/3/5 94/3/5 93/3/5
f 99/3/5 94/3/5 98/3/5
f 102/3/5 101/3/5 100/3/5
f 103/3/5 101/3/5 102/3/5
f 104/3/5 96/3/5 95/3/5
f 105/2/5 97/2/5 96/2/5
f 105/3/5 96/3/5 104/3/5
f 106/2/5 97/2/5 105/2/5
f 110/3/5 108/3/5 107/3/5
f 111/1/5 109/1/5 108/1/5
f 111/3/5 108/3/5 110/3/5
f 112/1/5 109/1/5 111/1/5
f 113/3/6 114/3/6 116/3/6
f 114/1/6 115/1/6 117/1/6
f 116/3/6 114/3/6 117/3/6
f 117/1/6 115/1/6 118/1/6
f 119/3/6 120/3/6 124/3/6
f 124/3/6 120/3/6 125/3/6
f 126/3/6 127/3/6 128/3/6
f 128/3/6 127/3/6 129/3/6
f 121/3/6 122/3/6 130/3/6
f 122/2/6 123/2/6 131/2/6
f 130/3/6 122/3/6 131/3/6
f 131/2/6 123/2/6 132/2/6
f 133/3/6 134/3/6 135/3/6
f 135/3/6 134/3/6 136/3/6
